<svg version="1" xmlns="http://www.w3.org/2000/svg" width="637.333" height="637.333" viewBox="0 0 478.000000 478.000000"><path d="M227.8.5c-.2.1-4.3.5-9.2.9-17.9 1.3-37.7 5.3-55.7 11.4-6.4 2.2-13.1 4.7-15 5.5-1.9.9-6.5 2.9-10.3 4.6-39 17.4-78.4 52.6-102 91.4-14.1 23-26.5 54.3-30.2 75.7-.6 3.1-2.4 13.7-2.9 17-1.9 11-2.5 40.7-1.1 55 .8 7.8 4.4 29.9 5.1 31 .2.4.7 2.2 1 4.1 1.3 7.9 11.2 34.4 17.5 47.4 8.7 17.6 20.9 36.3 32.5 49.5 4.2 4.8 22.3 22.9 26.6 26.7 13.4 11.6 35.9 26.1 52.4 33.8 15.1 7.1 36.6 14.7 45.4 16.1 1.9.3 4.4.9 5.6 1.4 1.8.7 7.3 1.6 20.5 3.6 15.4 2.3 50.9 2.3 63 0 1.4-.3 5.2-.9 8.5-1.5s7.1-1.2 8.5-1.5c5.4-.9 19-4.7 28.5-7.9 66.9-22.9 120.8-75.2 146-141.9 3.8-10.2 8.4-26 10.1-34.8.2-1.4.7-3.6.9-5 5.3-26.1 5.2-62.5-.2-89-.8-4.1-1.7-8.5-1.9-9.6-1-5.3-5.8-20.8-9.1-29.4-12.9-33.9-29.8-59.7-55.7-85.5-26.1-26-56.5-44.7-91.6-56.5-8-2.7-15.6-5.1-17-5.4-1.4-.3-5.7-1.2-9.6-2-3.9-.9-8.8-1.8-11-2.1-2.1-.4-5-.8-6.4-1-8.9-1.3-42.2-2.9-43.2-2z"/></svg>