<?xml version="1.0" encoding="utf-8"?>
<!-- Generator: Adobe Illustrator 23.0.3, SVG Export Plug-In . SVG Version: 6.00 Build 0)  -->
<svg version="1.1" xmlns="http://www.w3.org/2000/svg" xmlns:xlink="http://www.w3.org/1999/xlink" x="0px" y="0px"
	 viewBox="0 0 477 477" style="enable-background:new 0 0 477 477;" xml:space="preserve">
<style type="text/css">
	.st0{fill:#3FA9F5;}
	.st1{fill:#FFFFFF;}
	.st2{fill:none;stroke:#3FA9F5;stroke-width:4;stroke-miterlimit:10;}
</style>
<g id="Background">
	<path id="Disc" class="st0" d="M477,238.5c0,84.1-43.5,158-109.2,200.5c-37.2,24.1-81.6,38-129.3,38C106.8,477,0,370.2,0,238.5
		S106.8,0,238.5,0S477,106.8,477,238.5z"/>
</g>
<g id="Cat">
	<path id="Head" class="st1" d="M401.1,122.2c-1.2-1.5-2.9-2.2-4.7-2.2h0c-8.1,0.2-26.6,16.9-56.2,44.1
		c-29.3,27-62.6,57.7-76.2,58.3c-6.6,0.3-25.3,0.4-25.5,0.4c-0.2,0-18.9-0.1-25.5-0.4c-13.6-0.7-46.8-31.3-76.2-58.3
		c-29.5-27.2-48-43.9-56.2-44.1c-1.9,0-3.5,0.7-4.7,2.2c-6.3,7.4-2,33.8,3.4,62.5c0.9,4.8,1.7,9,2.2,12c3.3,20.8,23,119,33.2,142.7
		c12,27.6,28.2,37.8,42.6,46.8l1.7,1.1c25.7,16.2,74.6,19.1,76.7,19.2l5.8,0l0.1,0c2.1-0.1,50.9-3,76.7-19.2l1.7-1.1
		c14.3-9,30.6-19.3,42.6-46.8c10.2-23.6,29.9-121.8,33.2-142.7c0.5-3,1.3-7.2,2.2-12C403.1,155.9,407.4,129.6,401.1,122.2z"/>
	<g id="Mouth">
		<path class="st0" d="M222.1,353.5c-8.3,0-14.7-4.7-16.8-12.4c-0.2-0.6,0-1,0.2-1.3c0.3-0.4,0.8-0.6,1.3-0.6c0.7,0,1.2,0.4,1.4,1.1
			c1.6,6.3,6.9,10.2,13.8,10.2c1.6,0,3.2-0.2,4.8-0.6c5.7-1.5,9.8-6.3,10.1-11.6c0-1,0.9-1.5,1.6-1.5c0.4,0,0.8,0.2,1.1,0.4
			c0.3,0.3,0.4,0.6,0.4,1c-0.3,7.1-5.8,13.2-13.4,14.8C225.1,353.3,223.6,353.5,222.1,353.5z"/>
		<path class="st2" d="M238.5,338.2c0,0,11.1-7.9,9.5-11.2c-1-1.9-7.1-1.9-9.5-1.9s-8.5,0-9.5,1.9
			C227.4,330.3,238.5,338.2,238.5,338.2z"/>
		<path class="st0" d="M250.4,353c-7.6-1.6-13.1-7.7-13.4-14.8c0-0.4,0.1-0.7,0.4-1c0.3-0.2,0.7-0.4,1.1-0.4c0.7,0,1.6,0.5,1.6,1.5
			c0.3,5.3,4.4,10.1,10.1,11.6c1.6,0.4,3.2,0.6,4.8,0.6c6.9,0,12.2-3.9,13.8-10.2c0.2-0.7,0.7-1.1,1.4-1.1c0.5,0,1,0.2,1.3,0.6
			c0.2,0.3,0.4,0.7,0.2,1.3c-2.1,7.7-8.5,12.4-16.8,12.4C253.4,353.5,251.9,353.3,250.4,353z"/>
	</g>
	<g id="Ears">
		<path class="st0" d="M100.7,166.7c-0.3,0-0.4,0.1-0.5,0.1c0,0-1.1,0.8-1.2,5.5c-0.7,20.6,15.8,79.1,20.7,82.4
			c0.1,0.1,0.7,0.3,1.9,0.3c10.5,0,38.1-17,40.1-21.3c0,0,0.7-1.8-4.4-9.9C144.2,203.1,109.4,166.7,100.7,166.7z"/>
		<path class="st0" d="M376.3,166.7c0.3,0,0.4,0.1,0.5,0.1c0,0,1.1,0.8,1.2,5.5c0.7,20.6-15.8,79.1-20.7,82.4
			c-0.1,0.1-0.7,0.3-1.9,0.3c-10.5,0-38.1-17-40.1-21.3c0,0-0.7-1.8,4.4-9.9C332.8,203.1,367.6,166.7,376.3,166.7z"/>
	</g>
	<g id="Eyes">
		<ellipse class="st0" cx="170.4" cy="295.3" rx="16.1" ry="24.1"/>
		<ellipse class="st0" cx="306.6" cy="295.3" rx="16.1" ry="24.1"/>
	</g>
</g>
</svg>
