<?xml version="1.0" encoding="UTF-8" ?>
<!DOCTYPE svg PUBLIC "-//W3C//DTD SVG 1.1//EN" "http://www.w3.org/Graphics/SVG/1.1/DTD/svg11.dtd">
<svg width="500pt" height="500pt" viewBox="0 0 500 500" version="1.1" xmlns="http://www.w3.org/2000/svg">
<g id="#2cb4ffff">
<path fill="#2cb4ff" opacity="1.00" d=" M 226.08 2.23 C 227.22 0.22 228.75 1.55 229.94 2.55 C 232.28 1.95 234.55 0.88 237.02 0.99 C 249.69 1.00 262.37 1.00 275.05 1.00 C 275.39 1.34 276.09 2.01 276.43 2.34 C 279.22 2.47 282.31 1.69 284.83 3.25 C 287.89 3.26 290.97 3.31 293.93 4.21 C 297.72 4.35 301.53 4.71 305.15 5.92 C 308.58 8.14 312.90 7.73 316.62 9.25 C 318.00 9.56 319.40 9.83 320.74 10.34 C 322.49 10.58 324.31 10.63 325.93 11.46 C 327.09 11.55 328.26 11.63 329.44 11.70 C 329.43 12.13 329.42 13.00 329.41 13.43 C 332.01 14.09 334.62 14.75 337.20 15.51 C 338.94 16.59 340.94 16.90 342.96 16.95 C 342.99 17.43 343.03 18.38 343.06 18.85 C 344.16 18.86 345.27 18.87 346.39 18.88 C 347.44 19.55 348.50 20.21 349.57 20.86 C 350.08 20.86 351.11 20.86 351.62 20.86 C 352.76 21.71 353.86 22.61 354.78 23.70 C 359.28 24.91 363.50 26.91 367.90 28.40 C 367.87 28.74 367.79 29.42 367.76 29.76 C 368.43 30.06 369.76 30.65 370.43 30.95 C 372.60 31.88 374.84 32.64 377.05 33.49 C 377.04 33.83 377.03 34.53 377.02 34.87 C 379.13 35.74 381.18 36.80 382.84 38.39 C 383.48 38.41 384.75 38.44 385.38 38.46 C 385.37 38.86 385.34 39.67 385.33 40.07 C 388.45 41.80 391.65 43.39 394.81 45.07 C 394.77 45.46 394.71 46.23 394.68 46.62 C 395.09 46.66 395.92 46.76 396.33 46.80 C 397.30 47.64 398.29 48.45 399.31 49.23 C 400.09 49.50 400.89 49.76 401.69 50.01 C 402.03 50.91 402.38 51.81 402.75 52.70 C 401.05 51.97 399.59 50.17 397.60 50.47 C 391.00 51.72 384.93 54.82 379.23 58.28 C 371.71 62.82 362.48 61.41 354.26 60.12 C 351.82 62.81 353.58 66.28 353.16 69.41 C 352.11 72.33 350.55 75.16 348.37 77.39 C 345.72 79.59 342.68 81.26 340.04 83.47 C 343.54 90.30 349.19 95.83 352.11 102.98 C 353.86 107.12 355.28 111.48 355.56 116.00 C 355.70 118.25 355.37 120.89 353.44 122.36 C 348.69 122.97 343.87 122.73 339.14 123.55 C 340.74 128.57 343.54 133.66 342.28 139.09 C 341.07 144.29 341.78 149.59 342.60 154.77 C 335.18 152.24 328.05 148.40 320.05 148.11 C 319.78 149.71 319.56 151.33 319.15 152.91 C 317.30 153.51 315.35 153.73 313.46 154.09 C 305.16 148.95 296.22 144.87 286.96 141.83 C 288.75 139.82 290.10 135.72 293.47 136.50 C 295.30 138.31 296.56 140.64 298.46 142.39 C 300.10 142.73 301.75 142.00 303.37 141.77 C 303.01 139.37 302.67 136.96 302.40 134.55 C 304.61 134.49 306.83 134.41 309.05 134.58 C 309.11 137.27 308.42 139.93 308.46 142.63 C 313.24 146.99 320.12 144.90 325.89 146.01 C 330.63 147.14 334.80 149.84 339.52 151.06 C 338.96 146.07 338.60 141.05 338.75 136.03 C 339.04 130.65 336.82 125.64 336.08 120.40 C 341.36 119.58 347.28 121.48 351.88 118.00 C 352.60 107.77 346.91 98.75 341.18 90.81 C 339.60 88.42 337.51 85.96 337.56 82.94 C 339.81 78.71 344.73 77.23 347.94 73.95 C 348.84 72.01 348.39 69.71 348.59 67.62 C 343.04 67.19 337.39 67.12 331.97 68.58 C 327.40 69.86 322.67 70.26 317.96 70.68 C 310.98 71.30 305.01 75.63 298.04 76.32 C 293.31 76.84 288.32 76.80 283.85 74.97 C 278.62 72.81 275.38 67.50 269.94 65.74 C 262.90 64.33 255.08 65.02 249.11 69.33 C 244.57 72.02 241.92 76.67 238.95 80.85 C 235.75 85.80 228.17 86.13 226.20 92.09 C 225.08 95.21 224.37 100.23 228.15 101.79 C 231.77 100.84 234.88 98.67 238.20 97.03 C 241.09 99.69 243.21 103.06 246.07 105.74 C 246.67 105.69 247.88 105.58 248.49 105.52 C 252.14 99.97 250.91 93.13 251.61 86.91 C 253.55 80.93 260.18 78.12 266.07 78.05 C 266.10 82.92 263.14 86.81 260.13 90.31 C 263.07 93.05 268.85 95.00 267.66 99.99 C 266.37 105.52 261.23 109.17 256.48 111.68 C 250.64 114.66 243.97 113.39 237.90 111.96 C 235.13 111.11 232.47 112.65 230.29 114.21 C 225.10 118.01 220.61 122.76 214.98 125.95 C 211.20 127.94 207.17 129.41 203.32 131.26 C 206.58 134.34 209.07 138.21 209.02 142.87 C 206.09 143.91 203.19 145.01 200.33 146.22 C 197.18 145.66 193.49 144.50 190.69 146.68 C 188.28 148.05 187.63 150.92 186.70 153.31 C 166.74 165.62 150.29 184.14 142.23 206.32 C 134.21 227.92 134.58 252.48 143.26 273.83 C 152.77 297.63 171.84 317.00 194.60 328.45 C 210.47 336.50 228.16 340.85 245.94 341.32 C 248.54 347.07 251.62 352.72 252.83 358.98 C 254.66 368.96 255.62 379.08 257.64 389.02 C 258.51 392.92 259.83 397.55 263.89 399.22 C 269.68 401.74 276.24 399.92 281.81 397.67 C 289.87 394.32 295.12 387.03 300.52 380.54 C 304.99 375.31 309.04 369.36 309.84 362.34 C 314.75 363.94 320.07 365.59 325.24 364.21 C 330.88 362.10 334.37 355.88 334.05 349.97 C 333.66 337.66 330.28 325.67 329.21 313.43 C 328.89 311.19 331.16 309.92 332.41 308.42 C 352.27 289.43 363.85 261.84 362.46 234.29 C 368.27 227.70 376.95 223.45 380.08 214.77 C 376.47 212.10 372.78 209.52 369.48 206.46 C 368.10 205.39 366.83 203.93 365.06 203.58 C 362.18 204.02 359.47 205.17 356.72 206.07 C 354.30 199.69 351.19 193.60 347.76 187.72 C 352.64 191.21 355.45 197.22 361.24 199.48 C 369.56 202.76 378.60 203.29 387.32 204.91 C 391.78 205.62 395.36 208.46 399.07 210.80 C 403.09 213.44 408.22 212.02 412.55 213.71 C 414.04 214.91 414.75 216.79 415.52 218.48 C 420.47 231.27 424.68 244.50 431.86 256.27 C 432.95 257.66 433.89 260.00 436.05 259.69 C 438.18 259.66 439.21 257.38 440.14 255.80 C 444.01 248.77 438.91 240.08 443.28 233.23 C 447.06 227.72 452.89 224.17 458.12 220.19 C 461.45 217.71 465.84 215.04 470.08 216.94 C 474.56 221.23 475.04 228.90 481.07 231.79 C 484.50 233.81 489.40 232.16 492.23 235.06 C 494.52 240.27 493.11 246.22 494.01 251.73 C 494.27 256.98 496.52 261.75 498.92 266.32 C 499.37 279.25 496.74 291.91 495.00 304.67 C 494.52 304.69 493.56 304.74 493.08 304.76 C 493.07 307.38 493.52 310.16 492.32 312.62 C 492.08 314.29 491.91 315.99 491.40 317.61 C 490.31 320.10 489.84 322.75 489.87 325.46 C 489.41 325.32 488.49 325.03 488.03 324.89 C 488.45 326.23 488.86 327.57 489.25 328.93 C 487.90 329.24 486.79 329.95 486.54 331.38 C 485.45 335.16 484.66 339.02 483.66 342.82 C 483.25 342.86 482.44 342.93 482.03 342.97 C 481.77 344.12 481.48 345.26 481.15 346.40 C 479.84 348.83 479.47 351.59 478.55 354.16 C 478.12 354.19 477.26 354.25 476.83 354.28 C 476.66 356.33 475.76 358.17 474.79 359.94 C 474.31 361.44 473.78 362.93 473.25 364.43 C 472.67 364.50 471.49 364.66 470.91 364.74 C 471.45 365.34 472.52 366.56 473.06 367.16 C 472.40 367.34 471.07 367.68 470.41 367.85 C 469.40 370.38 469.25 373.89 465.92 374.42 C 466.36 374.80 467.24 375.55 467.67 375.93 C 467.10 375.95 465.97 375.98 465.40 376.00 C 465.33 378.23 463.81 379.85 462.63 381.59 C 462.33 382.61 462.05 383.64 461.80 384.68 C 458.16 385.59 459.34 391.18 455.18 391.54 C 455.25 391.92 455.39 392.70 455.47 393.09 C 452.69 396.96 449.48 400.47 446.61 404.27 C 446.55 404.70 446.42 405.56 446.35 405.99 C 445.44 406.39 444.53 406.79 443.63 407.20 C 442.72 411.06 439.34 413.03 436.35 415.16 C 436.17 416.57 436.10 418.16 434.56 418.79 C 432.44 419.98 431.43 422.25 429.92 424.03 C 427.06 424.57 426.64 427.93 424.42 429.39 C 422.65 430.64 420.95 431.96 419.83 433.86 C 418.81 435.92 415.97 435.48 414.75 437.25 C 413.29 439.59 410.81 440.90 408.56 442.35 C 407.21 444.79 404.53 445.92 402.53 447.72 C 401.09 448.63 399.81 449.76 398.53 450.87 C 396.91 451.82 395.34 452.85 393.70 453.75 C 393.72 454.08 393.75 454.73 393.77 455.05 C 393.08 455.29 391.70 455.76 391.00 456.00 C 389.28 456.99 387.57 458.00 385.89 459.06 C 384.09 460.31 382.43 461.74 380.77 463.16 C 379.51 463.41 378.25 463.62 376.99 463.81 C 376.52 464.77 376.06 465.74 375.62 466.72 C 374.29 467.19 372.95 467.67 371.61 468.11 C 369.70 469.02 367.72 469.80 365.65 470.24 C 365.70 470.57 365.81 471.23 365.87 471.56 C 363.47 472.47 360.95 473.16 358.85 474.69 C 356.89 475.03 355.00 475.59 353.13 476.24 C 353.18 476.60 353.27 477.32 353.32 477.69 C 352.00 478.01 350.70 478.38 349.42 478.80 C 348.97 478.93 348.09 479.19 347.65 479.31 C 346.61 479.68 345.58 480.03 344.54 480.36 C 343.88 480.63 342.54 481.19 341.87 481.47 C 341.90 481.86 341.97 482.63 342.00 483.02 C 340.34 483.19 338.68 483.40 337.05 483.78 C 333.44 484.63 330.01 486.21 326.28 486.55 C 326.29 486.96 326.30 487.77 326.30 488.18 C 324.59 488.36 322.85 488.50 321.25 489.19 C 319.55 489.41 317.78 489.40 316.25 490.27 C 315.87 490.36 315.12 490.54 314.74 490.64 C 310.76 491.80 306.64 492.69 302.47 492.60 C 302.48 493.06 302.51 493.98 302.52 494.44 C 299.27 494.37 296.23 495.82 292.97 495.62 C 290.72 495.77 288.22 495.13 286.25 496.56 C 283.97 496.67 281.65 496.47 279.42 497.07 C 275.42 498.21 271.21 497.46 267.11 497.78 C 265.96 498.82 264.48 499.17 262.95 499.02 C 253.66 498.91 244.35 499.14 235.06 498.92 C 234.60 498.63 233.69 498.05 233.23 497.76 C 227.11 498.02 221.08 496.84 215.12 495.64 C 212.87 495.29 210.31 496.18 208.40 494.59 C 206.54 494.49 204.68 494.50 202.83 494.50 C 201.51 493.66 200.00 493.33 198.48 493.12 C 195.29 492.16 191.95 491.72 188.84 490.52 C 187.49 490.45 186.13 490.39 184.78 490.34 C 181.81 489.12 178.71 488.31 175.61 487.52 C 174.25 486.82 172.89 486.16 171.54 485.48 C 168.90 485.06 166.37 484.19 163.85 483.35 C 158.78 481.13 153.55 479.33 148.47 477.16 C 146.47 476.08 144.44 475.09 142.43 474.04 C 141.97 473.99 141.03 473.88 140.56 473.83 C 136.61 471.87 133.06 469.22 128.99 467.49 C 125.19 465.19 121.36 462.94 117.58 460.62 C 116.09 459.71 114.65 458.75 113.08 458.00 C 112.73 457.63 112.03 456.88 111.69 456.50 C 110.40 455.97 109.11 455.45 107.81 454.97 C 107.82 454.62 107.83 453.91 107.84 453.55 C 106.57 453.02 105.31 452.48 104.05 451.97 C 95.82 445.76 87.73 439.28 80.38 432.06 C 70.19 422.90 60.76 412.79 52.55 401.84 C 53.92 403.03 55.33 404.19 56.74 405.35 C 65.48 393.93 72.88 381.57 80.11 369.17 C 83.55 363.38 89.03 359.36 93.88 354.87 C 97.71 351.21 99.98 346.19 100.70 340.98 C 101.87 333.40 103.47 325.78 106.94 318.88 C 108.62 315.11 111.37 311.34 110.67 306.99 C 110.32 304.55 108.29 302.81 106.22 301.74 C 101.82 299.43 96.88 298.55 92.17 297.09 C 84.30 294.78 76.74 290.91 70.91 285.06 C 65.88 280.07 61.41 274.43 55.60 270.28 C 51.10 267.06 46.19 264.48 41.65 261.32 C 36.98 258.25 32.51 254.43 26.85 253.38 C 21.22 252.37 15.48 252.00 9.93 250.50 C 7.00 249.54 3.94 250.02 0.99 250.64 C 0.66 236.71 1.35 222.76 3.91 209.06 C 4.71 202.36 5.90 195.65 8.13 189.25 C 8.36 187.54 8.54 185.83 9.06 184.18 C 10.91 176.98 13.65 170.04 16.00 162.99 C 17.42 158.48 19.90 154.36 21.03 149.74 C 23.78 145.20 25.14 139.92 28.33 135.65 C 26.25 141.57 22.71 146.87 20.93 152.92 C 25.32 150.97 29.97 148.90 32.97 144.97 C 36.44 140.43 38.70 134.95 43.05 131.09 C 47.81 126.39 54.51 124.38 61.02 123.74 C 65.24 123.28 70.16 123.67 73.46 120.49 C 77.35 116.99 76.95 110.97 75.24 106.48 C 73.06 100.91 69.13 95.23 63.07 93.60 C 56.93 93.52 52.53 98.34 48.58 102.39 C 51.60 97.87 55.34 93.91 58.50 89.50 C 61.62 86.06 65.07 82.92 67.99 79.30 C 69.16 76.42 72.60 75.55 73.92 72.78 C 75.30 71.27 76.73 69.68 78.73 69.00 C 79.25 68.25 79.76 67.50 80.26 66.75 C 85.07 63.12 89.43 58.91 94.03 55.01 C 100.22 49.91 107.07 45.73 113.66 41.19 C 114.60 40.37 115.54 39.56 116.48 38.75 C 118.13 37.95 119.77 37.12 121.38 36.23 L 122.10 36.88 C 113.48 41.39 105.79 47.43 97.84 53.00 C 100.23 55.12 103.40 56.91 104.47 60.10 C 106.24 68.22 97.33 73.98 98.66 82.05 C 99.47 86.18 102.01 90.16 105.69 92.28 C 108.63 93.27 112.60 93.40 114.71 90.71 C 118.56 86.23 121.93 81.19 127.02 77.98 C 134.78 72.18 145.46 73.74 153.40 68.33 C 159.31 64.26 162.62 57.60 167.91 52.87 C 171.72 48.96 176.54 46.24 180.40 42.41 C 181.99 41.05 182.04 38.15 179.83 37.43 C 170.22 32.93 159.33 34.40 149.06 34.17 C 140.06 33.87 131.00 34.61 122.26 36.82 L 122.02 36.04 C 123.70 35.09 125.34 34.07 126.98 33.06 C 131.95 30.75 136.38 27.46 141.45 25.35 C 144.46 24.92 146.66 22.63 149.48 21.70 C 153.99 20.06 158.38 18.15 162.66 15.96 C 164.01 15.77 165.35 15.50 166.67 15.15 C 169.44 14.42 172.50 13.99 174.64 11.89 C 178.50 11.52 182.12 9.96 185.94 9.33 C 189.03 8.32 192.23 7.56 195.48 7.32 C 198.41 4.42 202.68 6.46 205.90 4.47 C 207.76 4.47 209.63 4.49 211.50 4.49 C 211.84 4.20 212.50 3.63 212.83 3.34 C 214.82 3.36 216.82 3.37 218.82 3.31 C 221.00 1.94 223.65 2.44 226.08 2.23 M 160.73 76.18 C 160.64 78.74 158.12 82.45 160.85 84.19 C 164.52 84.72 168.20 85.30 171.90 85.58 C 175.02 83.87 177.89 81.73 181.12 80.21 C 180.47 79.11 180.11 77.62 178.72 77.22 C 174.89 75.73 170.92 77.50 167.10 78.04 C 164.96 77.46 162.88 76.73 160.73 76.18 M 201.37 99.41 C 200.12 100.72 199.24 102.32 198.31 103.85 C 200.15 107.41 202.21 110.87 204.61 114.08 C 203.58 115.12 202.45 116.08 201.55 117.24 C 201.45 118.62 203.05 119.51 203.56 120.74 C 203.19 122.15 202.61 123.49 202.11 124.86 C 207.28 124.89 212.66 123.30 215.95 119.06 C 211.30 116.47 210.02 111.09 206.70 107.29 C 204.57 104.97 205.41 99.29 201.37 99.41 M 192.22 110.14 C 188.05 112.43 189.15 118.01 188.31 121.99 C 192.95 121.25 196.75 117.56 197.70 112.99 C 198.09 110.30 194.27 108.46 192.22 110.14 M 5.57 222.26 C 5.06 224.37 4.57 226.49 4.11 228.62 C 8.34 228.95 12.57 228.36 16.47 226.69 C 14.41 222.69 9.31 223.25 5.57 222.26 M 441.15 257.18 C 440.95 260.58 441.36 263.98 441.65 267.37 C 442.96 267.41 444.27 267.45 445.59 267.49 C 445.65 265.36 445.82 263.21 445.50 261.09 C 445.07 259.00 443.73 256.42 441.15 257.18 M 489.24 275.54 C 490.67 279.52 494.61 281.59 497.78 284.02 C 497.88 281.45 498.77 278.68 497.70 276.23 C 495.75 273.38 492.56 271.75 489.68 270.02 C 489.39 271.82 488.29 273.74 489.24 275.54 M 351.47 328.46 C 348.96 330.96 347.30 334.42 343.99 336.04 C 341.84 337.49 338.62 338.01 337.69 340.74 C 336.92 344.02 337.75 347.52 336.67 350.76 C 334.92 354.61 332.37 358.45 333.15 362.92 C 333.00 366.62 335.38 372.02 339.95 370.51 C 343.54 368.52 346.14 364.90 347.00 360.90 C 348.36 354.70 350.53 348.73 352.94 342.87 C 354.73 338.77 355.31 334.05 354.13 329.71 C 353.86 328.35 352.60 328.29 351.47 328.46 Z" />
<path fill="#2cb4ff" opacity="1.00" d=" M 433.11 80.21 C 435.30 81.14 436.66 83.10 437.99 84.97 C 439.39 86.17 440.97 87.16 442.42 88.31 C 442.43 88.88 442.43 90.03 442.44 90.61 C 439.26 87.20 436.05 83.82 433.11 80.21 Z" />
<path fill="#2cb4ff" opacity="1.00" d=" M 204.86 172.90 C 223.79 162.58 246.60 159.41 267.67 163.73 C 268.75 165.08 269.77 166.48 270.78 167.88 C 272.91 167.40 275.02 166.82 277.07 166.05 L 277.34 165.95 C 288.68 169.18 299.31 174.80 308.49 182.19 C 306.26 184.32 303.79 186.18 301.19 187.82 C 302.66 190.11 304.12 192.41 305.57 194.72 C 306.79 194.63 308.02 194.54 309.25 194.45 C 312.73 201.24 315.75 208.36 320.52 214.40 C 324.42 219.70 329.74 224.26 331.55 230.81 C 332.84 235.15 334.66 239.30 336.37 243.48 C 336.51 245.64 336.00 247.78 335.66 249.91 C 333.71 245.29 330.03 241.86 326.51 238.45 C 321.90 233.98 320.77 227.39 317.99 221.84 C 315.07 215.87 313.17 209.30 308.92 204.09 C 306.19 200.68 302.97 197.57 301.26 193.48 C 300.05 191.26 299.27 188.31 296.63 187.39 C 292.46 185.89 287.86 185.95 283.82 184.04 C 280.20 182.55 276.98 179.84 272.98 179.45 C 267.86 179.53 269.16 188.35 263.93 187.89 C 260.19 187.30 257.08 184.91 253.55 183.68 C 249.96 182.11 245.90 181.62 242.54 179.55 C 239.69 175.96 244.16 169.83 239.96 166.83 C 232.37 165.42 224.82 168.18 217.46 169.78 C 213.27 170.86 209.01 171.66 204.86 172.90 Z" />
<path fill="#2cb4ff" opacity="1.00" d=" M 162.74 245.71 C 165.66 256.96 173.46 267.08 184.09 271.99 C 189.67 274.59 196.27 274.21 201.80 271.65 C 213.42 266.56 228.50 267.06 238.24 275.83 C 242.70 279.92 238.30 285.97 238.66 290.96 C 239.33 300.33 245.32 308.12 250.52 315.54 C 228.11 315.94 205.44 308.27 188.44 293.53 C 174.41 281.49 164.44 264.29 162.74 245.71 Z" />
<path fill="#2cb4ff" opacity="1.00" d=" M 498.82 260.58 C 497.79 257.44 497.52 254.09 498.79 250.97 C 499.07 254.17 499.06 257.38 498.82 260.58 Z" />
</g>
<g id="#4fd56bff">
<path fill="#4fd56b" opacity="1.00" d=" M 122.26 36.82 C 131.00 34.61 140.06 33.87 149.06 34.17 C 159.33 34.40 170.22 32.93 179.83 37.43 C 182.04 38.15 181.99 41.05 180.40 42.41 C 176.54 46.24 171.72 48.96 167.91 52.87 C 162.62 57.60 159.31 64.26 153.40 68.33 C 145.46 73.74 134.78 72.18 127.02 77.98 C 121.93 81.19 118.56 86.23 114.71 90.71 C 112.60 93.40 108.63 93.27 105.69 92.28 C 102.01 90.16 99.47 86.18 98.66 82.05 C 97.33 73.98 106.24 68.22 104.47 60.10 C 103.40 56.91 100.23 55.12 97.84 53.00 C 105.79 47.43 113.48 41.39 122.10 36.88 L 122.26 36.82 Z" />
<path fill="#4fd56b" opacity="1.00" d=" M 397.60 50.47 C 399.59 50.17 401.05 51.97 402.75 52.70 C 403.70 53.20 404.66 53.68 405.64 54.15 C 407.67 54.90 408.88 56.67 410.21 58.25 C 411.97 59.08 413.76 59.89 415.16 61.29 C 416.60 64.62 420.85 65.66 422.15 69.26 C 422.73 69.30 423.88 69.38 424.45 69.42 C 427.83 72.62 431.01 76.01 433.11 80.21 C 436.05 83.82 439.26 87.20 442.44 90.61 C 443.70 91.69 445.20 92.48 446.61 93.38 C 446.58 93.98 446.51 95.17 446.47 95.77 C 448.15 97.29 449.86 98.78 451.83 99.93 C 451.78 100.44 451.69 101.45 451.64 101.96 C 452.97 103.65 457.20 104.44 455.32 107.12 C 458.25 108.42 458.89 111.80 460.27 114.38 C 464.38 115.72 462.73 121.92 467.47 122.65 C 467.01 123.46 466.48 124.25 466.03 125.07 L 468.05 125.04 C 468.56 126.74 469.13 128.42 469.57 130.14 C 470.53 130.69 471.50 131.23 472.48 131.77 C 472.47 132.28 472.45 133.30 472.45 133.80 C 474.76 137.35 476.56 141.29 477.06 145.53 C 477.42 145.64 478.14 145.87 478.49 145.98 C 479.19 147.48 479.91 148.98 480.64 150.48 C 481.70 152.87 481.15 156.38 483.83 157.69 C 483.89 158.11 484.01 158.95 484.07 159.37 C 485.38 162.87 486.74 166.39 487.25 170.12 C 490.27 170.34 488.48 173.39 488.25 175.13 C 488.63 174.98 489.39 174.66 489.77 174.51 C 490.07 177.16 490.77 179.73 491.37 182.33 C 491.79 183.66 492.12 185.02 492.47 186.39 C 493.25 188.54 493.23 190.85 493.24 193.12 C 493.72 193.15 494.69 193.22 495.17 193.25 C 495.20 194.68 495.25 196.12 495.32 197.56 C 496.70 202.63 497.45 207.90 497.49 213.15 C 499.02 216.00 498.28 219.35 498.60 222.44 C 499.35 231.90 499.06 241.49 498.79 250.97 C 497.52 254.09 497.79 257.44 498.82 260.58 C 499.14 262.47 498.97 264.40 498.92 266.32 C 496.52 261.75 494.27 256.98 494.01 251.73 C 493.11 246.22 494.52 240.27 492.23 235.06 C 489.40 232.16 484.50 233.81 481.07 231.79 C 475.04 228.90 474.56 221.23 470.08 216.94 C 465.84 215.04 461.45 217.71 458.12 220.19 C 452.89 224.17 447.06 227.72 443.28 233.23 C 438.91 240.08 444.01 248.77 440.14 255.80 C 439.21 257.38 438.18 259.66 436.05 259.69 C 433.89 260.00 432.95 257.66 431.86 256.27 C 424.68 244.50 420.47 231.27 415.52 218.48 C 414.75 216.79 414.04 214.91 412.55 213.71 C 408.22 212.02 403.09 213.44 399.07 210.80 C 395.36 208.46 391.78 205.62 387.32 204.91 C 378.60 203.29 369.56 202.76 361.24 199.48 C 355.45 197.22 352.64 191.21 347.76 187.72 C 338.90 174.22 327.19 162.60 313.46 154.09 C 315.35 153.73 317.30 153.51 319.15 152.91 C 319.56 151.33 319.78 149.71 320.05 148.11 C 328.05 148.40 335.18 152.24 342.60 154.77 C 341.78 149.59 341.07 144.29 342.28 139.09 C 343.54 133.66 340.74 128.57 339.14 123.55 C 343.87 122.73 348.69 122.97 353.44 122.36 C 355.37 120.89 355.70 118.25 355.56 116.00 C 355.28 111.48 353.86 107.12 352.11 102.98 C 349.19 95.83 343.54 90.30 340.04 83.47 C 342.68 81.26 345.72 79.59 348.37 77.39 C 350.55 75.16 352.11 72.33 353.16 69.41 C 353.58 66.28 351.82 62.81 354.26 60.12 C 362.48 61.41 371.71 62.82 379.23 58.28 C 384.93 54.82 391.00 51.72 397.60 50.47 Z" />
<path fill="#4fd56b" opacity="1.00" d=" M 249.11 69.33 C 255.08 65.02 262.90 64.33 269.94 65.74 C 275.38 67.50 278.62 72.81 283.85 74.97 C 288.32 76.80 293.31 76.84 298.04 76.32 C 305.01 75.63 310.98 71.30 317.96 70.68 C 322.67 70.26 327.40 69.86 331.97 68.58 C 337.39 67.12 343.04 67.19 348.59 67.62 C 348.39 69.71 348.84 72.01 347.94 73.95 C 344.73 77.23 339.81 78.71 337.56 82.94 C 337.51 85.96 339.60 88.42 341.18 90.81 C 346.91 98.75 352.60 107.77 351.88 118.00 C 347.28 121.48 341.36 119.58 336.08 120.40 C 336.82 125.64 339.04 130.65 338.75 136.03 C 338.60 141.05 338.96 146.07 339.52 151.06 C 334.80 149.84 330.63 147.14 325.89 146.01 C 320.12 144.90 313.24 146.99 308.46 142.63 C 308.42 139.93 309.11 137.27 309.05 134.58 C 306.83 134.41 304.61 134.49 302.40 134.55 C 302.67 136.96 303.01 139.37 303.37 141.77 C 301.75 142.00 300.10 142.73 298.46 142.39 C 296.56 140.64 295.30 138.31 293.47 136.50 C 290.10 135.72 288.75 139.82 286.96 141.83 C 261.76 133.84 233.98 134.14 209.02 142.87 C 209.07 138.21 206.58 134.34 203.32 131.26 C 207.17 129.41 211.20 127.94 214.98 125.95 C 220.61 122.76 225.10 118.01 230.29 114.21 C 232.47 112.65 235.13 111.11 237.90 111.96 C 243.97 113.39 250.64 114.66 256.48 111.68 C 261.23 109.17 266.37 105.52 267.66 99.99 C 268.85 95.00 263.07 93.05 260.13 90.31 C 263.14 86.81 266.10 82.92 266.07 78.05 C 260.18 78.12 253.55 80.93 251.61 86.91 C 250.91 93.13 252.14 99.97 248.49 105.52 C 247.88 105.58 246.67 105.69 246.07 105.74 C 243.21 103.06 241.09 99.69 238.20 97.03 C 234.88 98.67 231.77 100.84 228.15 101.79 C 224.37 100.23 225.08 95.21 226.20 92.09 C 228.17 86.13 235.75 85.80 238.95 80.85 C 241.92 76.67 244.57 72.02 249.11 69.33 Z" />
<path fill="#4fd56b" opacity="1.00" d=" M 160.73 76.18 C 162.88 76.73 164.96 77.46 167.10 78.04 C 170.92 77.50 174.89 75.73 178.72 77.22 C 180.11 77.62 180.47 79.11 181.12 80.21 C 177.89 81.73 175.02 83.87 171.90 85.58 C 168.20 85.30 164.52 84.72 160.85 84.19 C 158.12 82.45 160.64 78.74 160.73 76.18 Z" />
<path fill="#4fd56b" opacity="1.00" d=" M 48.58 102.39 C 52.53 98.34 56.93 93.52 63.07 93.60 C 69.13 95.23 73.06 100.91 75.24 106.48 C 76.95 110.97 77.35 116.99 73.46 120.49 C 70.16 123.67 65.24 123.28 61.02 123.74 C 54.51 124.38 47.81 126.39 43.05 131.09 C 38.70 134.95 36.44 140.43 32.97 144.97 C 29.97 148.90 25.32 150.97 20.93 152.92 C 22.71 146.87 26.25 141.57 28.33 135.65 C 29.56 132.14 31.28 128.83 33.20 125.65 C 33.28 125.46 33.46 125.07 33.54 124.87 C 34.51 123.89 35.18 122.70 35.75 121.47 C 36.76 119.80 37.71 118.11 38.65 116.40 C 41.42 113.16 43.26 109.26 46.00 105.98 C 46.72 104.95 47.44 103.91 48.12 102.85 C 48.24 102.74 48.47 102.51 48.58 102.39 Z" />
<path fill="#4fd56b" opacity="1.00" d=" M 201.37 99.41 C 205.41 99.29 204.57 104.97 206.70 107.29 C 210.02 111.09 211.30 116.47 215.95 119.06 C 212.66 123.30 207.28 124.89 202.11 124.86 C 202.61 123.49 203.19 122.15 203.56 120.74 C 203.05 119.51 201.45 118.62 201.55 117.24 C 202.45 116.08 203.58 115.12 204.61 114.08 C 202.21 110.87 200.15 107.41 198.31 103.85 C 199.24 102.32 200.12 100.72 201.37 99.41 Z" />
<path fill="#4fd56b" opacity="1.00" d=" M 192.22 110.14 C 194.27 108.46 198.09 110.30 197.70 112.99 C 196.75 117.56 192.95 121.25 188.31 121.99 C 189.15 118.01 188.05 112.43 192.22 110.14 Z" />
<path fill="#4fd56b" opacity="1.00" d=" M 190.69 146.68 C 193.49 144.50 197.18 145.66 200.33 146.22 C 195.67 148.34 191.12 150.72 186.70 153.31 C 187.63 150.92 188.28 148.05 190.69 146.68 Z" />
<path fill="#4fd56b" opacity="1.00" d=" M 267.67 163.73 C 270.87 164.17 274.04 164.90 277.07 166.05 C 275.02 166.82 272.91 167.40 270.78 167.88 C 269.77 166.48 268.75 165.08 267.67 163.73 Z" />
<path fill="#4fd56b" opacity="1.00" d=" M 217.46 169.78 C 224.82 168.18 232.37 165.42 239.96 166.83 C 244.16 169.83 239.69 175.96 242.54 179.55 C 245.90 181.62 249.96 182.11 253.55 183.68 C 257.08 184.91 260.19 187.30 263.93 187.89 C 269.16 188.35 267.86 179.53 272.98 179.45 C 276.98 179.84 280.20 182.55 283.82 184.04 C 287.86 185.95 292.46 185.89 296.63 187.39 C 299.27 188.31 300.05 191.26 301.26 193.48 C 302.97 197.57 306.19 200.68 308.92 204.09 C 313.17 209.30 315.07 215.87 317.99 221.84 C 320.77 227.39 321.90 233.98 326.51 238.45 C 330.03 241.86 333.71 245.29 335.66 249.91 C 333.09 266.13 324.27 281.10 312.15 292.06 C 308.54 295.18 304.39 298.43 303.57 303.46 C 301.92 313.44 304.60 323.46 305.89 333.33 C 294.26 329.04 282.76 324.40 270.99 320.49 C 264.33 318.25 257.53 316.27 250.52 315.54 C 245.32 308.12 239.33 300.33 238.66 290.96 C 238.30 285.97 242.70 279.92 238.24 275.83 C 228.50 267.06 213.42 266.56 201.80 271.65 C 196.27 274.21 189.67 274.59 184.09 271.99 C 173.46 267.08 165.66 256.96 162.74 245.71 C 160.97 230.06 165.16 213.92 173.75 200.76 C 181.51 189.06 192.27 179.16 204.86 172.90 C 209.01 171.66 213.27 170.86 217.46 169.78 Z" />
<path fill="#4fd56b" opacity="1.00" d=" M 308.49 182.19 C 326.64 196.73 338.54 219.95 336.37 243.48 C 334.66 239.30 332.84 235.15 331.55 230.81 C 329.74 224.26 324.42 219.70 320.52 214.40 C 315.75 208.36 312.73 201.24 309.25 194.45 C 308.02 194.54 306.79 194.63 305.57 194.72 C 304.12 192.41 302.66 190.11 301.19 187.82 C 303.79 186.18 306.26 184.32 308.49 182.19 Z" />
<path fill="#4fd56b" opacity="1.00" d=" M 356.72 206.07 C 359.47 205.17 362.18 204.02 365.06 203.58 C 366.83 203.93 368.10 205.39 369.48 206.46 C 372.78 209.52 376.47 212.10 380.08 214.77 C 376.95 223.45 368.27 227.70 362.46 234.29 C 362.00 224.66 360.04 215.12 356.72 206.07 Z" />
<path fill="#4fd56b" opacity="1.00" d=" M 5.57 222.26 C 9.31 223.25 14.41 222.69 16.47 226.69 C 12.57 228.36 8.34 228.95 4.11 228.62 C 4.57 226.49 5.06 224.37 5.57 222.26 Z" />
<path fill="#4fd56b" opacity="1.00" d=" M 0.99 250.64 C 3.94 250.02 7.00 249.54 9.93 250.50 C 15.48 252.00 21.22 252.37 26.85 253.38 C 32.51 254.43 36.98 258.25 41.65 261.32 C 46.19 264.48 51.10 267.06 55.60 270.28 C 61.41 274.43 65.88 280.07 70.91 285.06 C 76.74 290.91 84.30 294.78 92.17 297.09 C 96.88 298.55 101.82 299.43 106.22 301.74 C 108.29 302.81 110.32 304.55 110.67 306.99 C 111.37 311.34 108.62 315.11 106.94 318.88 C 103.47 325.78 101.87 333.40 100.70 340.98 C 99.98 346.19 97.71 351.21 93.88 354.87 C 89.03 359.36 83.55 363.38 80.11 369.17 C 72.88 381.57 65.48 393.93 56.74 405.35 C 55.33 404.19 53.92 403.03 52.55 401.84 C 49.48 398.81 47.32 395.02 44.89 391.50 C 42.44 388.29 40.13 384.97 38.09 381.49 C 34.02 375.23 30.53 368.66 26.96 362.11 C 25.42 358.74 24.22 355.22 22.41 351.98 C 19.76 347.18 18.64 341.68 15.70 337.03 C 15.65 336.48 15.55 335.38 15.50 334.84 C 13.39 329.67 11.58 324.37 10.06 319.00 C 9.04 316.01 8.33 312.91 7.93 309.78 C 7.19 307.07 6.71 304.26 5.31 301.79 C 4.63 292.79 2.37 283.94 1.85 274.91 C 0.42 266.90 1.19 258.73 0.99 250.64 Z" />
<path fill="#4fd56b" opacity="1.00" d=" M 441.15 257.18 C 443.73 256.42 445.07 259.00 445.50 261.09 C 445.82 263.21 445.65 265.36 445.59 267.49 C 444.27 267.45 442.96 267.41 441.65 267.37 C 441.36 263.98 440.95 260.58 441.15 257.18 Z" />
<path fill="#4fd56b" opacity="1.00" d=" M 489.24 275.54 C 488.29 273.74 489.39 271.82 489.68 270.02 C 492.56 271.75 495.75 273.38 497.70 276.23 C 498.77 278.68 497.88 281.45 497.78 284.02 C 494.61 281.59 490.67 279.52 489.24 275.54 Z" />
<path fill="#4fd56b" opacity="1.00" d=" M 351.47 328.46 C 352.60 328.29 353.86 328.35 354.13 329.71 C 355.31 334.05 354.73 338.77 352.94 342.87 C 350.53 348.73 348.36 354.70 347.00 360.90 C 346.14 364.90 343.54 368.52 339.95 370.51 C 335.38 372.02 333.00 366.62 333.15 362.92 C 332.37 358.45 334.92 354.61 336.67 350.76 C 337.75 347.52 336.92 344.02 337.69 340.74 C 338.62 338.01 341.84 337.49 343.99 336.04 C 347.30 334.42 348.96 330.96 351.47 328.46 Z" />
<path fill="#4fd56b" opacity="1.00" d=" M 245.94 341.32 C 253.22 341.34 260.06 344.06 266.84 346.38 C 281.27 351.43 295.42 357.26 309.84 362.34 C 309.04 369.36 304.99 375.31 300.52 380.54 C 295.12 387.03 289.87 394.32 281.81 397.67 C 276.24 399.92 269.68 401.74 263.89 399.22 C 259.83 397.55 258.51 392.92 257.64 389.02 C 255.62 379.08 254.66 368.96 252.83 358.98 C 251.62 352.72 248.54 347.07 245.94 341.32 Z" />
</g>
<g id="#3a504eff">
<path fill="#3a504e" opacity="1.00" d=" M 209.02 142.87 C 233.98 134.14 261.76 133.84 286.96 141.83 C 296.22 144.87 305.16 148.95 313.46 154.09 C 327.19 162.60 338.90 174.22 347.76 187.72 C 351.19 193.60 354.30 199.69 356.72 206.07 C 360.04 215.12 362.00 224.66 362.46 234.29 C 363.85 261.84 352.27 289.43 332.41 308.42 C 331.16 309.92 328.89 311.19 329.21 313.43 C 330.28 325.67 333.66 337.66 334.05 349.97 C 334.37 355.88 330.88 362.10 325.24 364.21 C 320.07 365.59 314.75 363.94 309.84 362.34 C 295.42 357.26 281.27 351.43 266.84 346.38 C 260.06 344.06 253.22 341.34 245.94 341.32 C 228.16 340.85 210.47 336.50 194.60 328.45 C 171.84 317.00 152.77 297.63 143.26 273.83 C 134.58 252.48 134.21 227.92 142.23 206.32 C 150.29 184.14 166.74 165.62 186.70 153.31 C 191.12 150.72 195.67 148.34 200.33 146.22 C 203.19 145.01 206.09 143.91 209.02 142.87 M 204.86 172.90 C 192.27 179.16 181.51 189.06 173.75 200.76 C 165.16 213.92 160.97 230.06 162.74 245.71 C 164.44 264.29 174.41 281.49 188.44 293.53 C 205.44 308.27 228.11 315.94 250.52 315.54 C 257.53 316.27 264.33 318.25 270.99 320.49 C 282.76 324.40 294.26 329.04 305.89 333.33 C 304.60 323.46 301.92 313.44 303.57 303.46 C 304.39 298.43 308.54 295.18 312.15 292.06 C 324.27 281.10 333.09 266.13 335.66 249.91 C 336.00 247.78 336.51 245.64 336.37 243.48 C 338.54 219.95 326.64 196.73 308.49 182.19 C 299.31 174.80 288.68 169.18 277.34 165.95 L 277.07 166.05 C 274.04 164.90 270.87 164.17 267.67 163.73 C 246.60 159.41 223.79 162.58 204.86 172.90 Z" />
</g>
</svg>
